<?xml version="1.0" standalone="no"?><!DOCTYPE svg PUBLIC "-//W3C//DTD SVG 1.1//EN" "http://www.w3.org/Graphics/SVG/1.1/DTD/svg11.dtd"><svg t="1511939305605" class="icon" style="" viewBox="0 0 1024 1024" version="1.1" xmlns="http://www.w3.org/2000/svg" p-id="1840" xmlns:xlink="http://www.w3.org/1999/xlink" width="32" height="32"><defs><style type="text/css"></style></defs><path d="M512 1024C229.239467 1024 0 794.760533 0 512 0 229.239467 229.239467 0 512 0 794.760533 0 1024 229.239467 1024 512 1024 794.760533 794.760533 1024 512 1024ZM512 68.266667C266.922667 68.266667 68.266667 266.922667 68.266667 512 68.266667 757.077333 266.922667 955.733333 512 955.733333 757.077333 955.733333 955.733333 757.077333 955.733333 512 955.733333 266.922667 757.077333 68.266667 512 68.266667ZM512 819.2C474.282667 819.2 443.733333 788.650667 443.733333 750.933333 443.733333 713.216 474.282667 682.666667 512 682.666667 549.717333 682.666667 580.266667 713.216 580.266667 750.933333 580.266667 788.650667 549.717333 819.2 512 819.2ZM512 614.4C493.1584 614.4 477.866667 583.850667 477.866667 546.133333 477.866667 546.133333 443.733333 238.933333 443.733333 238.933333 443.733333 201.216 474.282667 170.666667 512 170.666667 549.717333 170.666667 580.266667 201.216 580.266667 238.933333 580.266667 238.933333 546.133333 546.133333 546.133333 546.133333 546.133333 583.850667 530.8416 614.4 512 614.4Z" p-id="1841" fill="#ffffff"></path></svg>